<?xml version="1.0" encoding="UTF-8"?>
<svg id="Capa_1" xmlns="http://www.w3.org/2000/svg" version="1.1" viewBox="0 0 14 14">
  <!-- Generator: Adobe Illustrator 30.1.0, SVG Export Plug-In . SVG Version: 2.1.1 Build 136)  -->
  <defs>
    <style>
      .st0 {
        fill: #f18635;
      }
    </style>
  </defs>
  <path class="st0" d="M9,14h-4.1c-1.4,0-2.6-1.2-2.6-2.6V2.6c0-1.4,1.2-2.6,2.6-2.6h4.1c1.4,0,2.6,1.2,2.6,2.6v8.8c0,1.4-1.2,2.6-2.6,2.6ZM5,.6c-1.1,0-2,.9-2,2v8.8c0,1.1.9,2,2,2h4.1c1.1,0,2-.9,2-2V2.6c0-1.1-.9-2-2-2h-4.1ZM8.2,12c0-.2-.1-.3-.3-.3h-1.7c-.2,0-.3.1-.3.3s.1.3.3.3h1.7c.2,0,.3-.1.3-.3Z"/>
</svg>