<?xml version="1.0" encoding="UTF-8"?>
<svg id="Capa_1" xmlns="http://www.w3.org/2000/svg" version="1.1" viewBox="0 0 14 14">
  <!-- Generator: Adobe Illustrator 30.1.0, SVG Export Plug-In . SVG Version: 2.1.1 Build 136)  -->
  <defs>
    <style>
      .st0 {
        fill: #f18635;
      }
    </style>
  </defs>
  <path class="st0" d="M11.4,1.2H2.6C1.2,1.2,0,2.3,0,3.8v6.4c0,1.4,1.2,2.6,2.6,2.6h8.8c1.4,0,2.6-1.2,2.6-2.6V3.8c0-1.4-1.2-2.6-2.6-2.6ZM2.6,1.7h8.8c.6,0,1.2.3,1.6.7l-4.5,4.5c-.4.4-.9.6-1.5.6s-1.1-.2-1.5-.6L1.1,2.5c.4-.5.9-.7,1.6-.7h-.1ZM13.4,10.2c0,1.1-.9,2-2,2H2.6c-1.1,0-2-.9-2-2V3.8c0-.3,0-.5.2-.8l4.4,4.4c.5.5,1.2.8,1.9.8s1.4-.3,1.9-.8l4.4-4.4c.1.2.2.5.2.8v6.4h-.2Z"/>
</svg>