<?xml version="1.0" encoding="UTF-8"?>
<svg id="Capa_1" xmlns="http://www.w3.org/2000/svg" version="1.1" viewBox="0 0 14 14">
  <!-- Generator: Adobe Illustrator 30.1.0, SVG Export Plug-In . SVG Version: 2.1.1 Build 136)  -->
  <defs>
    <style>
      .st0 {
        fill: #394062;
      }
    </style>
  </defs>
  <path class="st0" d="M8.7,13.2c-.5.1-1,.2-1.6.2-.3-.3-1.6-1.7-2.4-3.5h.8c.2,0,.3-.1.3-.3s0-.3-.3-.3h-1c-.3-.7-.4-1.5-.4-2.3s.2-1.6.4-2.3h5c.1.3.2.6.3.9,0,.2.2.3.3.2.2,0,.3-.2.2-.3,0-.3-.1-.5-.2-.8h2.9c.3.7.4,1.5.4,2.3s-.1,1.3-.3,2c0,.2,0,.3.2.4.2,0,.3,0,.4-.2.2-.7.3-1.4.3-2.1C14,3.1,10.9,0,7,0h0c-3.9,0-7,3.1-7,7s3.1,7,7,7,1.2,0,1.8-.2c.2,0,.2-.2.2-.4s-.2-.2-.4-.2h0ZM12.7,4.1h-2.8c-.6-1.6-1.6-2.8-2.2-3.5,2.2.2,4,1.6,5,3.5h0ZM7,.7c.4.5,1.6,1.7,2.3,3.4h-4.5c.7-1.7,1.8-2.9,2.3-3.4,0,0,0,0-.1,0ZM6.3.6c-.6.7-1.6,1.9-2.2,3.5H1.3C2.3,2.2,4.1.9,6.3.6h0ZM.6,7c0-.8.2-1.6.4-2.3h2.9c-.2.7-.4,1.5-.4,2.3s.2,1.6.4,2.3H1c-.3-.7-.4-1.5-.4-2.3ZM1.3,9.9h2.8c.6,1.6,1.6,2.8,2.2,3.5-2.2-.2-4-1.6-5-3.5ZM11.7,11.3c.4-.4.6-1,.6-1.6,0-1.4-1.2-2.6-2.6-2.6s-2.6,1.2-2.6,2.6,1.2,2.6,2.6,2.6,1.2-.2,1.6-.6l2.2,2.2h.4c.1-.1.1-.3,0-.4l-2.2-2.2h0ZM9.6,11.7c-1.1,0-2-.9-2-2s.9-2,2-2,2,.9,2,2-.9,2-2,2Z"/>
</svg>